<svg xmlns="http://www.w3.org/2000/svg" xmlns:xlink="http://www.w3.org/1999/xlink" width="60" height="60" viewBox="0 0 60 60"><defs><style>.a{fill:#fff;}.b{fill:none;}.c{clip-path:url(#a);}</style><clipPath id="a"><rect class="a" width="55.552" height="41.664"/></clipPath></defs><g transform="translate(-769 -7120)"><rect class="b" width="60" height="60" transform="translate(769 7120)"/><g transform="translate(282.224 6947.168)"><g transform="translate(489 182)"><g class="c" transform="translate(0 0)"><path class="a" d="M535.979,185.6a.141.141,0,0,0-.072-.065,46.407,46.407,0,0,0-11.307-3.446.172.172,0,0,0-.182.084,31.065,31.065,0,0,0-1.408,2.842,43.038,43.038,0,0,0-12.7,0,28.537,28.537,0,0,0-1.43-2.842.179.179,0,0,0-.182-.084,46.272,46.272,0,0,0-11.308,3.446.159.159,0,0,0-.074.063c-7.2,10.572-9.175,20.883-8.207,31.067a.186.186,0,0,0,.072.128,46.38,46.38,0,0,0,13.871,6.889.181.181,0,0,0,.195-.063,32.246,32.246,0,0,0,2.838-4.536.17.17,0,0,0,.007-.141.175.175,0,0,0-.1-.1,30.6,30.6,0,0,1-4.334-2.029.174.174,0,0,1-.017-.29q.438-.321.86-.663a.174.174,0,0,1,.18-.024,33.38,33.38,0,0,0,27.918,0,.173.173,0,0,1,.182.022q.423.343.863.665a.173.173,0,0,1-.015.29,28.711,28.711,0,0,1-4.336,2.027.176.176,0,0,0-.1.1.171.171,0,0,0,.008.142,36.221,36.221,0,0,0,2.835,4.533.178.178,0,0,0,.195.065,46.229,46.229,0,0,0,13.894-6.889.174.174,0,0,0,.072-.126,45.162,45.162,0,0,0-8.213-31.067Zm-28.535,24.864a5.527,5.527,0,0,1,0-11,5.527,5.527,0,0,1,0,11Zm18.459,0a5.527,5.527,0,0,1,0-11,5.527,5.527,0,0,1,0,11Zm0,0" transform="translate(-488.886 -182.078)"/></g></g></g></g></svg>