<svg xmlns="http://www.w3.org/2000/svg" width="60" height="60" viewBox="0 0 60 60">
  <g id="icon-help_tou_ming_di-60" data-name="icon-help tou ming di-60" transform="translate(-1758 -2010)">
    <rect id="矩形_408" data-name="矩形 408" width="60" height="60" transform="translate(1758 2010)" fill="none"/>
    <path id="question-full" d="M262.822,42.221a10.217,10.217,0,0,1-5.528,9.083,5.343,5.343,0,0,0-2.863,5.287.6.6,0,0,1-.6.661h-5.355a1.289,1.289,0,0,1-1.289-1.289,13.034,13.034,0,0,1,6.884-11.42,2.642,2.642,0,0,0,1.529-2.45,2.916,2.916,0,0,0-2.927-2.878H250.8a3.01,3.01,0,0,0-2.717,1.721,1.2,1.2,0,0,1-1.086.684h-5.035a1.2,1.2,0,0,1-1.18-1.443c.068-.327.147-.646.244-.962A10.228,10.228,0,0,1,250.8,32h1.8a10.225,10.225,0,0,1,10.221,10.221Zm-7.215,21.044a4.811,4.811,0,1,1-1.409-3.4A4.794,4.794,0,0,1,255.607,63.265Z" transform="translate(1536.211 1991.778)" fill="#2f3742"/>
  </g>
</svg>
