<svg xmlns="http://www.w3.org/2000/svg" xmlns:xlink="http://www.w3.org/1999/xlink" width="48" height="48" viewBox="0 0 48 48"><defs><style>.a{fill:#fff;}.b{fill:none;}.c{clip-path:url(#a);}</style><clipPath id="a"><rect class="a" width="33.513" height="32.695"/></clipPath></defs><g transform="translate(-1454 -5250)"><rect class="b" width="48" height="48" transform="translate(1454 5250)"/><g transform="translate(911.244 5116.424)"><g transform="translate(550 141)"><g class="c" transform="translate(0 0)"><path class="a" d="M566.623,140.875a16.745,16.745,0,0,0-5.293,32.631c.837.155,1.145-.363,1.145-.806,0-.4-.016-1.718-.023-3.117-4.659,1.013-5.642-1.976-5.642-1.976a4.436,4.436,0,0,0-1.858-2.45c-1.52-1.039.115-1.018.115-1.018a3.52,3.52,0,0,1,2.566,1.726,3.564,3.564,0,0,0,4.872,1.392,3.562,3.562,0,0,1,1.063-2.239c-3.719-.423-7.629-1.86-7.629-8.274a6.479,6.479,0,0,1,1.726-4.494,6.015,6.015,0,0,1,.162-4.431s1.406-.45,4.605,1.716a15.868,15.868,0,0,1,8.385,0c3.2-2.166,4.6-1.716,4.6-1.716a6.009,6.009,0,0,1,.164,4.431,6.466,6.466,0,0,1,1.724,4.494c0,6.43-3.917,7.846-7.646,8.262a4,4,0,0,1,1.135,3.1c0,2.24-.02,4.044-.02,4.6,0,.446.3.968,1.15.8a16.745,16.745,0,0,0-5.3-32.629Zm0,0" transform="translate(-549.885 -140.88)"/></g></g></g></g></svg>