<svg xmlns="http://www.w3.org/2000/svg" xmlns:xlink="http://www.w3.org/1999/xlink" width="48" height="48" viewBox="0 0 48 48"><defs><style>.a{fill:#fff;}.b{fill:none;}.c{clip-path:url(#a);}</style><clipPath id="a"><rect class="a" width="41.643" height="31.774"/></clipPath></defs><g transform="translate(-1395 -5253)"><rect class="b" width="48" height="48" transform="translate(1395 5253)"/><g transform="translate(909 5079)"><g transform="translate(489 182)"><g class="c" transform="translate(0 0)"><path class="a" d="M524.186,184.763a.106.106,0,0,0-.054-.05,34.35,34.35,0,0,0-8.476-2.628.129.129,0,0,0-.136.064,23.879,23.879,0,0,0-1.055,2.167,31.718,31.718,0,0,0-9.52,0,21.912,21.912,0,0,0-1.072-2.167.134.134,0,0,0-.136-.064,34.252,34.252,0,0,0-8.476,2.628.12.12,0,0,0-.056.048,35.12,35.12,0,0,0-6.152,23.693.143.143,0,0,0,.054.1,34.535,34.535,0,0,0,10.4,5.254.134.134,0,0,0,.146-.048,24.662,24.662,0,0,0,2.127-3.459.132.132,0,0,0-.072-.183,22.76,22.76,0,0,1-3.249-1.548.134.134,0,0,1-.013-.221q.328-.245.645-.505a.129.129,0,0,1,.135-.018,24.635,24.635,0,0,0,20.928,0,.128.128,0,0,1,.136.017q.317.261.647.507a.134.134,0,0,1-.011.221,21.355,21.355,0,0,1-3.25,1.546.133.133,0,0,0-.071.185,27.715,27.715,0,0,0,2.125,3.457.132.132,0,0,0,.146.049,34.422,34.422,0,0,0,10.415-5.254.133.133,0,0,0,.054-.1,34.887,34.887,0,0,0-6.157-23.693ZM502.8,203.725a4.223,4.223,0,0,1,0-8.391,4.223,4.223,0,0,1,0,8.391Zm13.837,0a4.223,4.223,0,0,1,0-8.391,4.223,4.223,0,0,1,0,8.391Zm0,0" transform="translate(-488.885 -182.079)"/></g></g></g></g></svg>