<svg xmlns="http://www.w3.org/2000/svg" xmlns:xlink="http://www.w3.org/1999/xlink" width="48" height="48" viewBox="0 0 48 48"><defs><style>.a{fill:#fff;}.b{fill:none;}.c{clip-path:url(#a);}</style><clipPath id="a"><rect class="a" width="40.42" height="32.896"/></clipPath></defs><g transform="translate(-1263 -5250)"><rect class="b" width="48" height="48" transform="translate(1263 5250)"/><g transform="translate(640.244 4988)"><g transform="translate(627 270)"><g class="c"><path class="a" d="M667.288,274.059a16.6,16.6,0,0,1-4.769,1.282,8.26,8.26,0,0,0,3.642-4.565,16.347,16.347,0,0,1-5.255,2,8.287,8.287,0,0,0-14.331,5.667,9.521,9.521,0,0,0,.2,1.9,23.533,23.533,0,0,1-17.074-8.668,8.3,8.3,0,0,0,2.564,11.082,8.351,8.351,0,0,1-3.744-1.054v.1a8.282,8.282,0,0,0,6.638,8.129,8.779,8.779,0,0,1-2.18.281,11.014,11.014,0,0,1-1.564-.126,8.3,8.3,0,0,0,7.741,5.745,16.6,16.6,0,0,1-10.281,3.54,16.971,16.971,0,0,1-2-.1,23.45,23.45,0,0,0,12.718,3.715c15.229,0,23.562-12.616,23.562-23.567,0-.359,0-.719-.024-1.078a17.834,17.834,0,0,0,4.152-4.283Zm0,0" transform="translate(-626.887 -270.15)"/></g></g></g></g></svg>