<svg xmlns="http://www.w3.org/2000/svg" width="48" height="48" viewBox="0 0 48 48">
  <g id="icon-botton_nav-bookface-48" data-name="icon-botton nav-bookface-48" transform="translate(-1325 -7780)">
    <rect id="矩形_322" data-name="矩形 322" width="48" height="48" transform="translate(1325 7780)" fill="none"/>
    <g id="组_44" data-name="组 44" transform="translate(692 7638.415)">
      <path id="路径_76" data-name="路径 76" d="M587.393,183.563V169.91h4.49l.685-5.417h-5.175v-3.464a3.162,3.162,0,0,1,.523-1.973,2.532,2.532,0,0,1,2.054-.665h2.779v-4.853a28.919,28.919,0,0,0-4.027-.222,6.555,6.555,0,0,0-4.893,1.873,7.238,7.238,0,0,0-1.832,5.3v3.987h-4.511v5.417h4.491v13.754a19.427,19.427,0,1,1,5.417-.081Zm-2.96.262h0Zm0,0" transform="translate(74)" fill="#fff"/>
    </g>
  </g>
</svg>
