<svg xmlns="http://www.w3.org/2000/svg" xmlns:xlink="http://www.w3.org/1999/xlink" width="48" height="48" viewBox="0 0 48 48"><defs><style>.a{fill:#fff;}.b{fill:none;}.c{clip-path:url(#a);}</style><clipPath id="a"><rect class="a" width="40.22" height="29.104"/></clipPath></defs><g transform="translate(-1201 -5250)"><rect class="b" width="48" height="48" transform="translate(1201 5250)"/><g transform="translate(591.244 4991.328)"><g transform="translate(614 268)"><g class="c" transform="translate(0 0)"><path class="a" d="M617.9,268.24H650.08a3.862,3.862,0,0,1,4.023,3.586L634,281.967l-20.1-10.129a3.84,3.84,0,0,1,4-3.6Zm-4,7.479-.019,17.933a3.851,3.851,0,0,0,4.023,3.629H650.08a3.852,3.852,0,0,0,4.023-3.629V275.711l-19.63,9.667a1.088,1.088,0,0,1-.963,0Zm0,0" transform="translate(-613.887 -268.227)"/></g></g></g></g></svg>