<svg xmlns="http://www.w3.org/2000/svg" width="60" height="60" viewBox="0 0 60 60">
  <g id="icon-submit_a_request_tou_ming_di-60" data-name="icon-submit a request tou ming di-60" transform="translate(-1753 -2122)">
    <rect id="矩形_409" data-name="矩形 409" width="60" height="60" transform="translate(1753 2122)" fill="none"/>
    <g id="kefu" transform="translate(1761.084 2137.02)">
      <path id="路径_1129" data-name="路径 1129" d="M180.207,225.684h0c0-7.877,6.024-14.257,13.456-14.257s13.456,6.381,13.456,14.257h3.058c0-9.659-7.394-17.492-16.514-17.492s-16.51,7.832-16.51,17.492h3.055Z" transform="translate(-171.75 -208.192)" fill="#2f3742"/>
      <path id="联合_5" data-name="联合 5" d="M6.731,13.465A6.733,6.733,0,0,1,6.731,0h4.077V13.465Zm.35-2.058H8.467V2.067h0V11.4H7.078A4.852,4.852,0,0,1,3.748,10.1,4.853,4.853,0,0,0,7.081,11.407Z" transform="translate(0 16.495)" fill="#2f3742"/>
      <path id="联合_4" data-name="联合 4" d="M0,13.462V0H4.077a6.731,6.731,0,1,1,0,13.462Zm2.341-2.054h0ZM8.523,6.735v0a4.735,4.735,0,0,0-4.738-4.67A4.738,4.738,0,0,1,8.523,6.735Z" transform="translate(33.024 16.495)" fill="#2f3742"/>
    </g>
  </g>
</svg>
